<svg width="36" height="36" viewBox="0 0 36 36" fill="none" xmlns="http://www.w3.org/2000/svg">
<rect width="36" height="36" rx="8" fill="#256D72"/>
<path d="M18.4388 24.9797L14.3766 24.9038C13.0613 24.8773 11.7428 24.9301 10.4533 24.656C8.49177 24.2465 8.35281 22.2386 8.20739 20.5544C8.00703 18.1865 8.0846 15.7757 8.46271 13.4276C8.67616 12.1101 9.51619 11.324 10.8153 11.2384C15.2006 10.9279 19.6151 10.9647 23.9908 11.1096C24.4529 11.1228 24.9182 11.1954 25.3739 11.278C27.6232 11.681 27.678 13.9564 27.8238 15.8718C27.9692 17.807 27.9078 19.7522 27.6299 21.6742C27.4069 23.2656 26.9803 24.6002 25.1799 24.729C22.9242 24.8975 20.7202 25.0331 18.4581 24.9899C18.4582 24.9797 18.4452 24.9797 18.4388 24.9797ZM16.0506 20.9507C17.7505 19.9533 19.4179 18.9725 21.1081 17.9818C19.4051 16.9844 17.7408 16.0036 16.0506 15.0129V20.9507Z" fill="#FFF8DE"/>
</svg>
